<?xml version="1.0" encoding="iso-8859-1"?>
<!-- Generator: Adobe Illustrator 22.0.1, SVG Export Plug-In . SVG Version: 6.00 Build 0)  -->
<svg version="1.1" id="Outlines" xmlns="http://www.w3.org/2000/svg" xmlns:xlink="http://www.w3.org/1999/xlink" x="0px" y="0px"
	 viewBox="0 0 1190.551 841.89" style="enable-background:new 0 0 1190.551 841.89;" xml:space="preserve">
<g>
	<path style="fill:#3F3F3F;" d="M394.758,404.198c0-0.688,1.331-1.276,3.188-1.812c4.219-1.219,6.75-1.406,11.562-2.375
		s7.625-1.75,10.375-2.625s3.875-1.469,4.625-1.469s1.906,0.188,1.906,1.625s-3.469,2.594-5.594,3.344s-16.531,4.375-22.5,4.375
		C395.258,405.26,394.758,404.792,394.758,404.198z M397.321,267.782c4.068,1.315,8.352,2.787,10.965,3.592
		c6.162,1.899,7.128,0.733,7.128-0.633s-2.232-1.432-4.23-1.932c-1.998-0.5-12.457-4.097-16.187-5.296
		c-3.73-1.199-5.562-1.699-6.395-1.699c-0.833,0-1.932,0.2-1.932,0.833C386.669,264.259,391.796,265.995,397.321,267.782z
		 M473.163,168.121c1.804,2.434,5.916,8.307,7.552,11.202c1.636,2.895,3.398,2.224,3.398,0.545c0-0.934-3.146-5.896-6.272-10.338
		c-2.491-3.54-5.021-6.749-5.56-7.326c-1.217-1.301-3.288-3.849-4.07-3.692C465.694,159.016,471.359,165.687,473.163,168.121z
		 M591.849,145.221c0.056,8.073,3.221,7.509,3.155,0.26c-0.027-2.932-0.162-15.997-0.186-17.481c-0.046-2.864-2.839-2.625-2.895,0
		C591.908,128.708,591.819,140.804,591.849,145.221z M704.749,180.037c1.123-1.736,3.021-4.854,5.057-7.86
		c2.036-3.006,5.81-7.735,8.096-10.898c2.286-3.163-0.125-3.821-2.85-0.532c-1.611,1.944-6.451,8.017-7.641,9.771
		c-1.19,1.754-4.407,7.226-5.073,8.33C701.148,180.819,703.371,182.166,704.749,180.037z M770.93,271.744
		c0.481,1.16,4.813,0.372,7.089-0.438s15.3-4.905,18.4-6.192c4.539-1.883,2.955-4.402-1.291-2.844
		c-2.572,0.944-7.417,2.275-11.705,3.829c-4.288,1.553-8.85,2.782-10.874,3.457C771.892,269.775,770.448,270.584,770.93,271.744z
		 M776.241,403.645c7.387,1.447,15.206,2.594,15.206,0.677s-10.92-3.646-15.149-4.361s-11.127-2.895-13.232-3.59
		c-2.105-0.695-3.346-0.15-3.346,1.241C759.719,399.811,768.854,402.198,776.241,403.645z M459.925,349.292
		c0.583,6.25,2.917,16.25,4.333,22.333c1.417,6.083,6.583,18,9.083,23.417s8.583,16.417,10.667,20.417
		c2.083,4,6.75,13.417,10.75,20.667s14,26.417,17.833,33.25c3.833,6.833,6.417,15.833,7.417,21.667s2.083,18.25,2.833,24.25
		s2.917,10.417,6.75,16.833c3.833,6.417,9.75,8.917,14.167,10.083c2.063,0.545,10.33,1.27,20.997,1.583
		c11.727,0.344,26.356,0.25,38.836,0.25c23.833,0,38.583-0.75,44.583-1.333c6-0.583,11.667-2,12.917-2.917s1.484-2.012,3.167-4.333
		c6.583-9.083,8-16.25,9-21.667c1-5.417,2.417-17.917,3.25-24.5c0.833-6.583,5.25-16.5,8.667-23.25s8-14.5,12.333-22.083
		c4.333-7.583,6.667-12.917,10.167-19.917s7.917-15,11.5-21.167c3.583-6.167,7.25-16.333,10.5-24.917
		c3.25-8.583,5.583-22.083,6.917-32.167c1.333-10.083,0.917-21.667-0.25-36.083c-1.167-14.417-5.5-23.25-10-34.5
		s-14.667-25.167-20.667-32.583s-15.167-15.25-22.833-20.5c-7.667-5.25-17.25-10.583-27.25-15.558
		c-8.776-4.366-16.583-6.608-23.583-8.442s-20.417-4-33.75-4c-28.167,0-46.25,7.583-54.667,11.167
		c-8.417,3.583-18.083,9-26.833,14.583s-14.5,10.667-19.5,15.667s-10.417,11.333-13.917,16c-3.5,4.667-8.083,12.833-11.667,19.833
		c-3.583,7-6.833,15.583-8.417,21.25c-1.583,5.667-2.667,11.667-3.75,19.333c-1.083,7.667-0.917,10.333-0.917,21.333
		C458.592,338.375,459.342,343.042,459.925,349.292z M515.508,486.625c-1.21-4.906-3.333-9.75-5.583-14.25
		s-10.083-18.333-13.833-25.667c-3.75-7.333-14.083-27.083-17.417-33.5c-3.333-6.417-8.917-17.333-12.167-25.583
		s-7.25-18.083-9.167-32.5c-1.917-14.417-2.833-27.25-2.083-35.333s1.5-14.25,2.667-19.833c1.167-5.583,2.917-12.75,4.833-17.5
		c1.917-4.75,7-15.333,9.167-19.333c2.167-4,6.5-11,10.167-15.75s9.167-11.333,14.167-15.917c5-4.583,11.75-10.5,21.75-16.583
		s19.333-10.917,26.167-13.833c6.833-2.917,22.75-7.833,30.917-8.917c8.167-1.083,21.667-2.083,31-1.5
		c9.333,0.583,20.917,2.333,27.75,4.333c6.833,2,15.583,4,25.583,9.333c10,5.333,20.083,11,26.083,15.25
		s18.167,14.833,24.083,22.333c5.917,7.5,14.333,18.833,19.583,31c5.25,12.167,9.083,20.417,10.833,37.333
		c1.75,16.917,1.242,27.09,0.192,34.667c-1.942,14-3.275,21.917-5.275,29.083c-2,7.167-3.167,8.917-6.417,16.667
		s-6.75,15.083-10,20.75c-3.25,5.667-9.083,17.583-12.083,23.333s-9.054,16.955-12.642,23.417c-4.442,8-11.442,20.5-13.192,29.417
		s-2.833,23.333-3.667,27.333c-0.833,4-2.5,12.333-6,17.083c-1.716,2.329-3.307,4.848-5,7.333c-1.76,2.585-2.417,4.917-9.083,6
		c0,0,0.583,3.25,1.083,5.167c0.5,1.917,1.833,10,2.167,11.5c0.333,1.5,0.858,3.025-0.975,5.942
		c-1.608,2.558-1.692,4.142-0.025,7.975c1.667,3.833,1.667,6.5,0.333,8s-3.25,3.333-1.25,6.917s4.235,8.374,0.833,11.5
		c-3.083,2.833-3.167,3.5-0.583,6.083c2.583,2.583,1.833,6.75-0.583,9.417c-2.417,2.667-1.667,4.5,0.083,6.667
		c1.75,2.167,2.583,5.667-0.417,9c-3,3.333-7.333,7.833-10.833,10.833s-8.167,7.5-10,8.25c-2.25,2.5-3.333,3.333-4.917,5
		c-1.583,1.667-3.917,4.25-6.083,6.583c-2.167,2.333-3.833,4.167-4.75,5.083c-0.917,0.917-1.25,2.25-5.083,2.25
		c-3.833,0-31.667-0.167-34.333-0.167c-2.667,0-4.583-1.167-6.417-2.833c-1.833-1.667-3.75-3.833-5.75-5.333s-6.5-5.75-7.833-7.167
		c-1.333-1.417-2-2.333-3.25-2.667s-3.75-2.667-5.583-4.167s-12-9.583-12-14.917c0-2.667,1.396-4.729-0.354-5.604
		s-8.188-4.188-3.312-11.562c0.83-1.256,4.625-3.25,1.25-6s-6.947-5.7-1.312-10.062c1.938-1.5,4.312-2.75,1.688-6
		s-8-7.063-1.562-12.625c3.944-3.407,1.648-5.358,0.462-7.157c-1.186-1.798-3.137-2.793-2.487-9.947
		c0.428-4.709,1.186-10.215,1.53-13.085c0.344-2.869,0.88-6.695,1.301-7.767c-2.104-1.148-6.083-3.711-7.805-5.624
		c-1.722-1.913-6.045-8.149-7.231-11.172s-3.061-8.073-3.711-12.817c-0.65-4.744-1.454-10.521-1.683-13.659s-0.65-5.624-0.918-7.996
		C516.261,490.76,515.942,488.382,515.508,486.625z M541.175,545.458c-0.042,5.333-0.833,11.25-1.333,16.083
		s-1.667,7.25,0.667,10.25c2.333,3,5.214,9.304,2.083,11.5c-3.764,2.64-5.083,4-2.833,6.25s7.056,8.397,2.338,12.569
		c-3.541,3.131-4.016,3.275-0.585,6.199c2.868,2.444,3.08,6.482,0.58,9.316c-2.5,2.833-4.362,4.798-0.58,6.825
		c2.761,1.48,3.08,2.425,3.08,5.508c0,3.083-0.325,5.24,3.417,9c4.188,4.208,9.438,7.833,10.438,8.958s2.688,2.75,2.688,2.75
		c6.875,0.062,17.375,0.188,23.562,0.188s45.062-1.375,47.438,0.375c1.688-1.375,1.812-1.375,2.562-1.5s2.312-1.812,3.25-2.625
		s4.375-4,6.625-6s5.188-5.125,7.062-7.062s4.062-4.125,4.062-5.188c0-1.688-3.5-4.188-3.5-7.75c0-4.75,3.875-5.688,3.875-8.312
		s-3.562-3.25-3.562-7.188c0-4.812,4.062-5.188,4.062-7.562c0-3.312-3.938-6.625-3.938-10c0-4.188,3.312-4.875,3.312-7.75
		c0-2.312-2.438-5.938-2.438-9.062c0-4,2.562-5.312,2.562-7.062c0,0-2.812-16.188-2.375-18.438
		c-4.938,0.688-14.312,1.75-20.562,1.75s-21.812,0.438-29.688,0.438s-30.062,0.125-37.438-0.125S543.467,546.5,541.175,545.458z
		 M610.383,556.083c34.5,0,37.5-2.917,37.5-3.375c0-0.458-1.125-0.625-3.542-0.625c-2.417,0-14.833,1.042-25.083,1.042
		s-37.042,0.125-43.583,0.125s-19.875-0.75-23.083-0.958c-3.208-0.208-5.583-0.25-5.583,0.333
		C547.008,555.458,576.217,556.083,610.383,556.083z M557.54,568.496c6.188,0.25,20.312,0.202,28.656,0.202
		c16.625,0,11.219-2.656,1.594-2.656c-2.94,0-6.479-0.015-10.062-0.069c-6.508-0.099-13.159-0.119-16.625-0.119
		c-5.375,0-14.531-1.656-14.531-0.031C546.571,566.573,551.451,568.25,557.54,568.496z M549.8,580.875
		c0,0.875,8.125,1.542,14.625,1.542s43.125-1.75,51.292-2.125c8.167-0.375,13.458-1.333,17.708-1.625s6.667-1.583,6.667-2.208
		s-1.875-0.958-4.667-0.708s-18.875,1.375-30.333,1.875c-11.458,0.5-25.917,1.292-29.875,1.375
		c-3.958,0.083-12.625,0.875-15.833,0.875C556.633,579.875,549.8,580,549.8,580.875z M583.842,601.875
		c21.542-0.75,36.907-2.041,42.75-2.667c12.833-1.375,13.917-2.75,13.583-3.083c-0.333-0.333-1.917-0.708-5.708-0.458
		c-3.792,0.25-30.792,2.458-40.792,3.042c-10,0.583-28.667,1-32,1s-8.708-0.083-10.75-0.083s-3.833,0.375-3.833,1.042
		C547.092,602.708,576.675,602.124,583.842,601.875z M602.922,618.486c9.685-0.52,18.153-1.473,22.878-1.903
		c16.5-1.5,18.083-3.75,18.083-4.083c0-0.333-0.792-0.583-2.75-0.583c-1.958,0-25.375,3.25-51.792,4.208
		c-14.546,0.528-38.333,0.583-39.708,0.583s-2.5,0.125-2.5,0.708C547.133,620.658,583.258,619.542,602.922,618.486z
		 M568.717,637.435c6.679,0.606,13.664,0.815,18.25,0.815c5.818,0,13.375-0.548,21.458-0.917c10.5-0.479,21.718-1.001,29.417-3.167
		c6.576-1.85,4.208-2.417,0-2.125c-4.208,0.292-13.083,1.208-22.917,1.708S596.842,635,576.3,635c-5.875,0-17.542-1.125-21.25-1.542
		c-3.115-0.35-5.208-1.125-5.208-0.167C549.842,634.974,558.952,636.549,568.717,637.435z"/>
	<path style="fill:#FFFFFF;" d="M564.55,403.625c0,1.292,1.708,3.917,1.708,3.917l4.167,0.083c-1.125-2-3.958-5.458-4.958-5.458
		C564.925,402.167,564.55,402.333,564.55,403.625z"/>
	<path style="fill:#3F3F3F;" d="M629.258,404.417c0-0.708,0.125-1.708-0.792-1.708c-0.875,0-4.042,3.333-5.542,6.458
		C627.133,409.625,629.258,407.167,629.258,404.417z"/>
	<path style="fill:#FFFFFF;" d="M564.55,403.625c0,1.292,1.708,3.917,1.708,3.917l4.167,0.083c-1.125-2-3.958-5.458-4.958-5.458
		C564.925,402.167,564.55,402.333,564.55,403.625z M629.258,404.417c0-0.708,0.125-1.708-0.792-1.708
		c-0.875,0-4.042,3.333-5.542,6.458C627.133,409.625,629.258,407.167,629.258,404.417z"/>
	<path style="fill:#3F3F3F;" d="M634.842,384.25c0-14.417-7.333-20.5-11.958-23.625s-9.5-4.583-13-4.583s-9.333,0-9.333,0
		l0.017-31.25h7.525c7.181,0,11.627-2.603,14.556-5.795c2.901-3.161,4.319-5.497,4.319-10.914c0-12.792-11.208-13.458-15-13.458
		c-4.907,0-9.547,3.037-12.5,7.483c-2.213,3.331-3.416,9.204-3.416,13.434c0,2.25,0,4.833,0,4.833s-8.5,0.167-11.625,0.167
		s-6.958,0.75-12.458,2.542c-5.5,1.792-7.958,8.167-9.125,11.125c-1.167,2.958-1.417,4.875-1.417,9.292
		c0,4.588,1.073,7.553,2.583,10.25c2.399,4.283,5.958,6.917,17.625,6.917c5.542,0,14.458,0.25,14.458,0.25s0.042,13.208-0.042,20
		c-0.083,6.792,0,15.375,0.083,27.292c-7,0.875-20.375-0.167-20.375-0.167c-1.625-3.25-5.375-10.167-10.208-10.167
		c-4.75,0-7.292,5.083-3.042,11.375c2.4,3.552,6.208,3.083,10.083,3.125c1.583,1.958,3.25,16.042,3.792,19.167
		s1.583,5.542,3.458,5.542c2.208,0,1.513-3.342,1.167-5.542c-0.708-4.5-1.625-10-2.083-13.208c-0.458-3.208-1.25-5.5-1.25-5.5
		c5.083,0.458,18.417,0.125,18.417,0.125c0.167,11.917,0.083,17,2.167,17c2.708,0,2.042-5.125,2.208-17.458
		c3.792-0.375,9.292-1.042,17.833-3.792c-2.667,3.667-3.542,11.958-4.292,16.333S612.8,435.5,614.3,435.5
		c3.417,0,4.25-9.208,4.792-12.917c0.542-3.708,1.125-7.167,2.625-10.667c0,0,0.875,1,3.125,1c7.625,0,8.75-7.458,8.75-9.208
		s-0.25-2.208-2.792-4.833C632.925,395.333,634.842,391.167,634.842,384.25z M596.05,356.208c0,0-18.875-0.192-21.458-0.358
		c-2.583-0.167-5-2.35-6.167-3.433c-1.167-1.083-2.5-5.125-2.5-9.375s1.042-7.333,2.708-11.208s7.917-6.875,14.958-6.875
		c7.042,0,12.458-0.083,12.458-0.083V356.208z M600.55,312.292c0-8.542,6.375-13.375,11.5-13.375c6.417,0,10.868,2.633,10.542,9.583
		c-0.292,6.208-4.208,11.683-13.542,11.683c-4.13,0-8.583,0.108-8.583,0.108S600.55,317.417,600.55,312.292z M625.55,398.625
		c-1.958,2.5-5.542,5.167-12.75,7.042c-7.208,1.875-11.25,1.958-12.292,2.042c0,0,0.042-43.125,0.042-46.75
		c5.708-0.167,8.5-0.25,11.167,0c2.667,0.25,4.583,0.917,8.042,3.125c1.497,0.956,3.95,2.544,5.928,5.135
		c2.591,3.393,4.572,8.404,4.572,14.949C630.258,391,627.508,396.125,625.55,398.625z"/>
	<path style="fill:#3F3F3F;" d="M562.05,535.417c0,2.875,17.708,3.167,26.167,3.167c37,0,47.083-2.375,47.083-3.542
		s-3.083-1-9.417-1c-6.333,0-17.875,0.75-29.25,0.75s-19.042-0.167-23.417-0.167S562.05,534.75,562.05,535.417z"/>
	<path style="fill:#3F3F3F;" d="M574.925,522.458c0-2.417,0.167-12.042,0.167-20.708c0-8.667-0.438-19.207-0.375-20.625
		c0.125-2.792,3.667-6.167,3.708-7.25c0.018-0.458-0.083-1.208-1.542-1.208c-1.458,0-3.792,3.667-5.125,6.167
		c-1.333,2.5-0.75,10.875-0.75,19.25s0.083,18.667,0.083,24.25C571.092,532.375,574.925,532.083,574.925,522.458z"/>
	<path style="fill:#3F3F3F;" d="M590.915,514.385c0,10.5,2.906,9.906,2.906-0.062c0-3.188,0.094-11.031,0.094-18.969
		s-0.75-9.656-1.75-9.656s-0.938,1.65-0.938,3.625C591.227,490.635,590.915,508.792,590.915,514.385z"/>
	<path style="fill:#3F3F3F;" d="M603.102,512.948c0,7.875,2.875,12.969,2.875,2.25c0-5.281,0.25-19.625,0.281-22.25
		s0.25-7.438-1.5-7.438c-1.375,0-1.281,4.094-1.281,6.344S603.102,509.51,603.102,512.948z"/>
	<path style="fill:#3F3F3F;" d="M583.977,476.917c0,1.406,4.938,1.469,13.281,1.469s12.75-0.625,12.75-1.938s-1.938-1.344-5-1.344
		C594.915,475.104,583.977,475.51,583.977,476.917z"/>
	<path style="fill:#3F3F3F;" d="M597.727,470.573c5.562,0,8.438-4.469,8.438-8.781c0-4.583-4.344-5.125-4.344-3.281
		c0,1.062,1.25,1.281,1.25,3.844c0,1.875-0.906,5.25-5.438,5.25c-4.375,0-6.062-3.375-6.062-6.062s1.625-5.781,4.25-5.781
		c0.781,0,1.188-0.219,1.188-0.719s-0.406-1.219-2.469-1.219c-3.25,0-5.906,4.656-5.906,8.125
		C588.633,466.854,592.758,470.573,597.727,470.573z"/>
	<path style="fill:#3F3F3F;" d="M576.258,468.167c-0.063-2.291,0.375-14.958,0.375-20.208s5.953-6.317,9.5-6.583
		c7.208-0.542,7.417-2.375,7.417-3s-3.422-1.095-7.917-0.875c-12.792,0.625-12.792,9.167-12.875,13.208
		c-0.083,4.042,0.24,15.418,0.333,17.5C573.343,473.823,576.411,473.714,576.258,468.167z"/>
	<path style="fill:#3F3F3F;" d="M599.967,438.75c0,1.375,4.29,1.396,8.667,1.708c7,0.5,8.375,4.292,8.375,6.625
		c0,2.333,0.458,8.958,0.458,11.208s-0.542,10.25,2.083,10.25s1.708-11.625,1.458-18.917c-0.25-7.292-3.042-9.208-5.583-10.75
		c-2.542-1.542-7.792-1.542-10.875-1.542C602.883,437.333,599.967,438,599.967,438.75z"/>
	<path style="fill:#3F3F3F;" d="M620.133,480.875c0.975,3.881,1.292,10.292,1.208,15.667c-0.083,5.375,0.208,18.292,0.375,24.542
		c0.083,3.124,0.667,8.167,1.667,8.167c1.542,0,2-6,2-8.833s-0.208-3.667-0.208-8.917c0-5.25-0.208-11.458-0.208-21.5
		c0-10.042-4-16.542-6.5-18c-1.339-0.781-3.667-0.833-3.667-0.042C614.8,473.375,618.05,472.583,620.133,480.875z"/>
</g>
</svg>
